<?xml version="1.0" standalone="no"?><!DOCTYPE svg PUBLIC "-//W3C//DTD SVG 1.1//EN" "http://www.w3.org/Graphics/SVG/1.1/DTD/svg11.dtd"><svg t="1709085192967" class="icon" viewBox="0 0 1024 1024" version="1.1" xmlns="http://www.w3.org/2000/svg" p-id="15139" xmlns:xlink="http://www.w3.org/1999/xlink" width="200" height="200"><path d="M23.273 141.964h977.454V793.6H23.273z" fill="#D81E06" p-id="15140"></path><path d="M188.51 221.09l20.945 60.51h65.163l-53.527 39.564L242.036 384l-53.527-39.564L134.982 384l20.945-62.836L102.4 281.6h65.164z m223.417 123.346l6.982 18.619h18.618l-16.29 11.636 6.981 18.618-16.29-11.636-16.292 11.636 6.982-18.618-16.29-11.636h20.945zM432.873 256l-9.31 16.29 13.964 13.965-18.618-2.328-9.309 18.618-2.327-20.945-20.946-2.327 18.618-9.31-4.654-18.618 13.964 13.964z m-107.055-58.182l18.618 6.982 13.964-16.29-2.327 20.945 18.618 6.981-18.618 4.655-2.328 18.618-9.309-16.29-20.945 4.654 13.964-13.964z m0 223.418l18.618 6.982 13.964-16.29-2.327 20.945 18.618 6.982-18.618 4.654-2.328 20.946-9.309-18.619-20.945 6.982 13.964-16.29z" fill="#E6CC2D" p-id="15141"></path></svg>